<?xml version="1.0" encoding="utf-8"?>
<!-- Generator: Adobe Illustrator 19.2.1, SVG Export Plug-In . SVG Version: 6.00 Build 0)  -->
<svg version="1.1" id="Layer_1" xmlns="http://www.w3.org/2000/svg" xmlns:xlink="http://www.w3.org/1999/xlink" x="0px" y="0px"
	 viewBox="0 0 841.9 595.3" style="enable-background:new 0 0 841.9 595.3;" xml:space="preserve">
<style type="text/css">
	.st0{fill:#662D91;}
	.st1{fill:#9474B4;}
	.st2{fill:#8B5E3C;}
	.st3{fill:#A97C50;}
	.st4{fill:#8DC63F;}
	.st5{fill:#009444;}
	.st6{fill:#CE181E;}
	.st7{fill:#FFFFFF;}
	.st8{fill:#F7B7D3;}
	.st9{fill:#F287B7;}
	.st10{fill:#27AAE1;}
	.st11{fill:#2495C6;}
	.st12{fill:#808285;}
	.st13{fill:#BCBEC0;}
	.st14{fill:#F15A29;}
	.st15{fill:#FBB040;}
	.st16{fill:#414042;}
	.st17{fill:#53777A;}
	.st18{fill:#ECD078;}
	.st19{fill:#D95B43;}
	.st20{fill:#C02943;}
	.st21{fill:#542437;}
</style>
<g>
	<g>
		<polygon class="st17" points="192.9,131.3 176.1,152.3 166.1,139.8 166.8,124.1 		"/>
		<polygon class="st18" points="110.5,152.4 82.6,113.7 91.8,99.8 110.5,106.9 129.2,99.8 138.4,113.7 		"/>
		<polygon class="st18" points="76.9,117.8 104.8,156.6 59.7,170.9 49.4,157.9 62,142.1 61.1,122.2 		"/>
		<polygon class="st18" points="61.9,177.6 107,163.3 107,210.3 91.8,216 80.6,199 61.1,193.7 		"/>
		<polygon class="st18" points="114,163.3 159.1,177.6 159.9,193.7 140.4,199 129.2,216 114,210.3 		"/>
		<polygon class="st18" points="161.3,170.9 116.2,156.6 144.1,117.8 159.9,122.2 159,142.1 171.6,157.9 		"/>
		<polygon class="st19" points="161.4,87.7 160.2,115 144.9,110.8 136,97.3 		"/>
		<polygon class="st17" points="110.5,71.4 125.3,93.8 110.5,99.4 95.7,93.8 		"/>
		<polygon class="st19" points="59.6,87.7 85,97.3 76.1,110.8 60.8,115 		"/>
		<polygon class="st17" points="28.1,131.3 54.2,124.1 54.9,139.8 44.9,152.3 		"/>
		<polygon class="st19" points="28.1,184.6 44.9,163.6 54.9,176.1 54.2,191.8 		"/>
		<polygon class="st17" points="59.6,228.1 60.8,200.9 76.1,205.1 85,218.6 		"/>
		<polygon class="st19" points="110.5,244.5 95.7,222.1 110.5,216.5 125.3,222.1 		"/>
		<polygon class="st17" points="161.4,228.1 136,218.6 144.9,205.1 160.2,200.9 		"/>
		<polygon class="st19" points="166.1,176.1 176.1,163.6 192.9,184.6 166.8,191.8 		"/>
	</g>
	<g>
		<polygon class="st20" points="401.6,184.6 377.3,191.3 385.9,165 		"/>
		<polygon class="st17" points="354.3,179.3 360.2,161.2 380.3,161.2 370.5,191.1 		"/>
		<polygon class="st20" points="330,191.4 308.4,191.4 290.7,178.6 284,157.9 290.7,137.3 308.4,124.4 330,124.4 347.6,137.3 
			354.4,157.9 347.6,178.6 		"/>
		<polygon class="st19" points="360.2,154.7 354.3,136.5 370.5,124.8 380.3,154.7 		"/>
		<polygon class="st17" points="350.4,131.2 334.9,119.9 341,100.9 366.6,119.5 		"/>
		<polygon class="st19" points="328.7,117.9 309.7,117.9 303.6,98.8 334.8,98.8 		"/>
		<polygon class="st17" points="303.5,119.9 287.9,131.2 271.8,119.5 297.3,100.9 		"/>
		<polygon class="st19" points="284.1,136.5 278.1,154.7 258.1,154.7 267.9,124.8 		"/>
		<polygon class="st17" points="278.1,161.2 284.1,179.3 267.9,191.1 258.1,161.2 		"/>
		<polygon class="st19" points="287.9,184.6 303.5,196 297.3,215 271.8,196.4 		"/>
		<polygon class="st17" points="309.7,198 328.7,198 334.8,217 303.5,217 		"/>
		<polygon class="st19" points="334.9,196 350.4,184.6 366.6,196.4 341,215 		"/>
		<polygon class="st18" points="385.9,150.9 377.3,124.6 401.6,131.3 		"/>
		<polygon class="st20" points="369,113.1 346.4,96.7 370.1,87.7 		"/>
		<polygon class="st18" points="332.9,92.3 305.4,92.3 319.2,71.4 		"/>
		<polygon class="st20" points="292,96.7 269.4,113.1 268.3,87.7 		"/>
		<polygon class="st18" points="236.8,131.3 261.1,124.6 252.4,150.9 		"/>
		<polygon class="st20" points="252.4,165 261.1,191.3 236.8,184.6 		"/>
		<polygon class="st18" points="269.4,202.8 292,219.2 268.3,228.1 		"/>
		<polygon class="st20" points="305.4,223.6 332.9,223.6 319.2,244.5 		"/>
		<polygon class="st18" points="346.4,219.2 369,202.8 370.1,228.1 		"/>
	</g>
	<g>
		<polygon class="st20" points="610.3,184.6 585,191.6 594,164.2 		"/>
		<polygon class="st19" points="480.8,195.9 489.5,189.5 488.9,201.8 		"/>
		<polygon class="st20" points="569.9,184.6 581.9,181.3 578.7,191 		"/>
		<polygon class="st20" points="560.7,203.2 543.6,196.8 533.7,165.9 559.9,184.9 		"/>
		<polygon class="st18" points="495,112.6 512.1,119.1 522.1,149.9 495.8,130.9 		"/>
		<polygon class="st18" points="537.3,161 569.8,161 581.1,175.2 563.5,180 		"/>
		<polygon class="st20" points="537.3,154.9 563.5,135.9 581.1,140.7 569.8,154.9 		"/>
		<polygon class="st18" points="559.9,130.9 533.7,149.9 543.6,119.1 560.7,112.6 		"/>
		<polygon class="st20" points="527.9,148 517.9,117.2 527.9,102.1 537.8,117.2 		"/>
		<polygon class="st20" points="518.4,154.9 486,154.9 474.7,140.7 492.2,135.9 		"/>
		<polygon class="st18" points="518.4,161 492.2,180 474.7,175.2 486,161 		"/>
		<polygon class="st20" points="495.8,184.9 522.1,165.9 512.1,196.8 495,203.2 		"/>
		<polygon class="st18" points="527.9,167.9 537.8,198.7 527.9,213.8 517.9,198.7 		"/>
		<polygon class="st20" points="585.4,170.7 577.6,161 588.6,161 		"/>
		<polygon class="st19" points="577.6,154.9 585.5,145 588.7,154.9 		"/>
		<polygon class="st19" points="569.9,131.3 578.9,124.8 582.1,134.7 		"/>
		<polygon class="st20" points="566.3,126.3 566.8,113.5 575.4,119.7 		"/>
		<polygon class="st20" points="546.1,111.6 549.5,100.9 558,107.1 		"/>
		<polygon class="st19" points="540.2,109.7 533.1,98.9 543.7,98.9 		"/>
		<polygon class="st19" points="515.5,109.7 512,98.9 522.6,98.9 		"/>
		<polygon class="st20" points="509.7,111.6 497.7,107.1 506.2,100.9 		"/>
		<polygon class="st20" points="488.9,113.5 489.5,126.3 480.4,119.7 		"/>
		<polygon class="st19" points="485.9,131.3 473.6,134.7 476.9,124.8 		"/>
		<polygon class="st19" points="470.2,145 478.1,154.9 467,154.9 		"/>
		<polygon class="st20" points="478.1,161 470.4,170.7 467.2,161 		"/>
		<polygon class="st20" points="485.9,184.6 477,191 473.8,181.3 		"/>
		<polygon class="st19" points="509.7,204.3 506.4,214.6 498.2,208.6 		"/>
		<polygon class="st20" points="515.5,206.2 522.3,216.4 512.2,216.4 		"/>
		<polygon class="st20" points="540.2,206.2 543.5,216.4 533.5,216.4 		"/>
		<polygon class="st19" points="546.1,204.3 557.5,208.6 549.4,214.6 		"/>
		<polygon class="st19" points="566.8,201.8 566.3,189.5 575,195.9 		"/>
		<polygon class="st17" points="594.1,151.5 585.2,124.4 610.3,131.3 		"/>
		<polygon class="st20" points="577.6,113.8 554.5,96.9 578.8,87.7 		"/>
		<polygon class="st17" points="542,92.8 513.8,92.8 527.9,71.4 		"/>
		<polygon class="st20" points="501.3,96.9 478.1,113.8 477,87.7 		"/>
		<polygon class="st17" points="445.5,131.3 470.6,124.4 461.7,151.5 		"/>
		<polygon class="st20" points="461.8,164.2 470.8,191.6 445.5,184.6 		"/>
		<path class="st17" d="M478.2,201.6l11.4,8.3c0.1,0.1,0.2,0.3,0.4,0.4c0.1,0.1,0.3,0.2,0.5,0.3l11.4,8.3l-24.8,9.3L478.2,201.6z"/>
		<polygon class="st20" points="513.4,222.6 542.3,222.6 527.9,244.5 		"/>
		<path class="st17" d="M554,218.8l11.4-8.3c0.2-0.1,0.3-0.1,0.5-0.3c0.1-0.1,0.3-0.2,0.4-0.4l11.4-8.3l1.2,26.6L554,218.8z"/>
	</g>
	<g>
		<polygon class="st18" points="84.9,472.7 84.8,472.7 84.8,472.6 84.1,472.6 68.8,451.5 69,450.9 69,450.8 69,450.8 68.4,450.4 
			68.4,424.3 69,423.9 69,423.8 69,423.8 68.8,423.1 84.1,402.1 84.9,402.1 84.9,402 84.9,402 85.1,401.3 109.9,393.3 110.5,393.7 
			111.1,393.3 135.9,401.4 136.2,402.1 136.9,402.1 152.2,423.2 152,423.9 152.6,424.3 152.6,450.4 152,450.9 152.2,451.6 
			136.9,472.7 136.1,472.7 135.9,473.4 111.1,481.4 110.5,481 109.9,481.4 85.1,473.3 		"/>
		<polygon class="st20" points="61.7,401.9 76,402 66.2,415.5 64.3,409.6 		"/>
		<polygon class="st20" points="61.8,429 61.8,445.7 50.2,437.4 		"/>
		<polygon class="st20" points="76,472.7 61.7,472.8 66.2,459.2 		"/>
		<polygon class="st20" points="133.5,393.6 117.6,388.5 129.2,380 		"/>
		<polygon class="st20" points="170.9,437.3 159.2,445.7 159.2,429 		"/>
		<polygon class="st20" points="103.4,486.2 91.9,494.8 87.5,481.1 		"/>
		<polygon class="st20" points="133.5,481.1 129.2,494.8 117.6,486.2 		"/>
		<polygon class="st20" points="145,472.7 154.8,459.2 159.3,472.8 		"/>
		<polygon class="st20" points="159.3,401.9 154.8,415.5 145,402 147.5,402 		"/>
		<polygon class="st20" points="103.4,388.5 87.5,393.6 91.9,379.9 100.9,386.6 		"/>
		<polygon class="st17" points="198.1,426.8 177.1,433.7 159.9,421.4 166.6,401.2 187.5,394.4 180.8,414.6 		"/>
		<polygon class="st19" points="154,377.6 175.2,377.4 162.2,395.2 147.7,395.4 141,395.4 134.6,375.1 147.5,357.3 		"/>
		<polygon class="st17" points="110.5,363.5 127.6,350.8 127.6,372.9 110.5,385.5 100.9,378.4 93.4,372.9 93.4,350.8 		"/>
		<polygon class="st19" points="67.1,377.5 73.5,357.3 86.4,375.2 80.1,395.4 58.8,395.2 45.8,377.4 		"/>
		<polygon class="st17" points="40.2,414.5 33.5,394.4 54.5,401.2 58.3,412.5 61.2,421.3 43.9,433.7 22.9,426.8 		"/>
		<polygon class="st19" points="22.9,447.8 43.9,441 61.2,453.4 54.5,473.5 33.5,480.3 40.2,460.1 		"/>
		<polygon class="st17" points="73.4,517.4 67,497.1 45.8,497.3 58.8,479.5 80,479.3 86.4,499.5 		"/>
		<polygon class="st19" points="110.5,511.2 93.4,523.9 93.4,501.9 110.5,489.2 127.6,501.8 127.6,523.9 		"/>
		<polygon class="st17" points="153.9,497.2 147.5,517.4 134.6,499.6 141,479.3 162.2,479.5 175.2,497.3 		"/>
		<polygon class="st19" points="187.5,480.3 166.6,473.5 159.9,453.4 177.1,441 198.1,447.8 180.8,460.2 		"/>
	</g>
	<g>
		<polygon class="st20" points="401.6,464 376.8,470.8 385.5,443.9 		"/>
		<polygon class="st17" points="368.5,473.1 368.6,473.8 358.5,481.2 357.7,465.3 373,461.1 369.2,472.9 		"/>
		<polygon class="st17" points="337.9,495.4 337.6,495.9 325.1,495.9 333.8,482.7 348.7,488.3 338.5,495.7 		"/>
		<polygon class="st17" points="300.4,495.4 299.8,495.7 289.7,488.3 304.5,482.7 313.2,495.9 300.7,495.9 		"/>
		<polygon class="st17" points="269.2,472.9 265.3,461.1 280.6,465.3 279.9,481.2 269.8,473.8 269.8,473.1 		"/>
		<polygon class="st17" points="269.8,401.6 269.8,400.8 279.9,393.5 280.6,409.4 265.3,413.6 269.2,401.8 		"/>
		<polygon class="st17" points="300.4,379.2 300.7,378.8 313.2,378.8 304.5,392 289.7,386.4 299.8,379 		"/>
		<polygon class="st17" points="337.9,379.2 338.5,379 348.7,386.4 333.8,392 325.1,378.8 337.6,378.8 		"/>
		<polygon class="st17" points="369.2,401.8 373,413.6 357.7,409.4 358.5,393.5 368.6,400.8 368.5,401.6 		"/>
		<polygon class="st17" points="380.6,437.8 376.7,449.7 366.9,437.3 376.7,425 380.6,436.9 380.3,437.3 		"/>
		<polygon class="st19" points="364,430.5 359.5,416.7 372.2,420.2 		"/>
		<polygon class="st19" points="352.7,417 358.3,434.1 329.3,434.1 		"/>
		<polygon class="st18" points="325.4,428.8 334.4,401.2 348.9,411.7 		"/>
		<polygon class="st19" points="319.2,426.7 310.2,399.2 328.1,399.2 		"/>
		<polygon class="st18" points="313,428.8 289.5,411.7 304,401.2 		"/>
		<polygon class="st19" points="309.1,434.1 280.1,434.1 285.6,417 		"/>
		<polygon class="st18" points="309.1,440.6 285.6,457.7 280.1,440.6 		"/>
		<polygon class="st19" points="313,445.9 304,473.5 289.5,463 		"/>
		<polygon class="st18" points="319.2,447.9 328.1,475.5 310.2,475.5 		"/>
		<polygon class="st19" points="325.4,445.9 348.9,463 334.4,473.5 		"/>
		<polygon class="st18" points="329.3,440.6 358.3,440.6 352.7,457.7 		"/>
		<polygon class="st19" points="351.4,405.4 339.5,396.8 352,392.2 		"/>
		<polygon class="st19" points="312,392.6 319.2,381.6 326.4,392.6 		"/>
		<polygon class="st19" points="287,405.4 286.4,392.2 298.8,396.8 		"/>
		<polygon class="st19" points="274.4,430.5 266.1,420.2 278.9,416.7 		"/>
		<polygon class="st19" points="274.4,444.2 278.9,458 266.1,454.5 		"/>
		<polygon class="st19" points="287,469.3 298.8,477.9 286.4,482.5 		"/>
		<polygon class="st19" points="326.4,482.1 319.2,493 312,482.1 		"/>
		<polygon class="st19" points="351.4,469.3 352,482.5 339.5,477.9 		"/>
		<polygon class="st19" points="364,444.2 372.2,454.5 359.5,458 		"/>
		<polygon class="st17" points="257.8,436.9 261.6,425 271.5,437.3 261.6,449.7 257.7,437.8 258.1,437.3 		"/>
		<polygon class="st18" points="385.5,430.8 376.8,403.8 401.6,410.7 		"/>
		<polygon class="st20" points="368.9,393 345.9,376.3 370.1,367.1 		"/>
		<polygon class="st18" points="333.3,372.2 305.1,372.2 319.2,350.8 		"/>
		<polygon class="st20" points="292.5,376.3 269.4,393 268.3,367.1 		"/>
		<polygon class="st18" points="236.8,410.7 261.6,403.8 252.9,430.8 		"/>
		<polygon class="st20" points="252.9,443.9 261.6,470.8 236.8,464 		"/>
		<polygon class="st18" points="269.4,481.7 292.5,498.4 268.3,507.5 		"/>
		<polygon class="st20" points="305.1,502.5 333.3,502.5 319.2,523.9 		"/>
		<polygon class="st18" points="345.9,498.4 368.9,481.7 370.1,507.5 		"/>
	</g>
	<g>
		<path class="st17" d="M527.9,458.4l-12.4-4l-7.7-10.6v-13l7.7-10.6l12.4-4l12.4,4c0,0,0,0,0,0l7.7,10.5v13l-7.7,10.6L527.9,458.4z
			"/>
		<g>
			<polygon class="st21" points="551.2,454.4 548,454.2 550.1,451.3 			"/>
			<polygon class="st21" points="536.8,464.8 534.3,462.8 537.6,461.7 			"/>
			<polygon class="st21" points="504.5,420.3 507.7,420.5 505.6,423.3 			"/>
			<polygon class="st21" points="519,409.9 521.4,411.8 518.1,412.9 			"/>
			<polygon class="st21" points="550.1,423.3 548.1,420.6 551.2,420.4 			"/>
			<polygon class="st21" points="536.8,409.9 537.6,412.9 534.3,411.8 			"/>
			<polygon class="st21" points="501.7,435.6 501.7,439.1 499,437.4 			"/>
			<polygon class="st21" points="505.6,451.3 507.7,454.1 504.5,454.3 			"/>
			<polygon class="st21" points="519,464.8 518.1,461.7 521.5,462.8 			"/>
			<polygon class="st21" points="554.1,439.1 554.1,435.6 556.7,437.3 			"/>
		</g>
		<g>
			<g>
				<polygon class="st20" points="552.7,471.6 542.3,467.7 544.4,460.2 552.2,460.5 				"/>
				<polygon class="st20" points="503.1,403.1 513.4,407 511.3,414.5 503.6,414.2 				"/>
				<polygon class="st20" points="561.2,432.9 554.7,428.6 557.4,421.4 568,424.3 				"/>
				<polygon class="st20" points="552.7,403.1 552.2,414.2 544.4,414.6 542.4,407 				"/>
				<polygon class="st20" points="527.8,409.2 521.8,404.4 527.9,395.2 533.9,404.3 				"/>
				<polygon class="st20" points="498.4,421.4 501.1,428.7 494.6,433 487.7,424.3 				"/>
				<polygon class="st20" points="494.6,441.8 501,446.1 498.3,453.3 487.7,450.3 				"/>
				<polygon class="st20" points="503.1,471.6 503.6,460.5 511.3,460.1 513.4,467.7 				"/>
				<polygon class="st20" points="527.9,465.5 533.9,470.3 527.9,479.5 521.9,470.4 				"/>
				<polygon class="st20" points="557.4,453.3 554.7,446 561.2,441.7 568,450.3 				"/>
			</g>
		</g>
		<g>
			<polygon class="st19" points="546.5,494.8 532.5,483.6 539.4,473.1 551.3,477.6 			"/>
			<polygon class="st19" points="504.4,477.6 516.3,473.1 523.3,483.7 509.2,494.9 			"/>
			<polygon class="st19" points="478.9,472.8 485.2,456 497.5,459.4 496.9,472 			"/>
			<polygon class="st19" points="509.2,379.9 523.2,391.1 516.3,401.6 504.5,397.1 			"/>
			<polygon class="st19" points="551.3,397.1 539.4,401.6 532.5,391 546.5,379.7 			"/>
			<polygon class="st19" points="576.8,401.9 570.5,418.7 558.3,415.3 558.8,402.7 			"/>
			<polygon class="st19" points="573.3,447.2 565.5,437.3 573.4,427.4 588.3,437.3 			"/>
			<polygon class="st19" points="496.9,402.5 497.5,415.3 485.3,418.7 478.9,401.7 			"/>
			<polygon class="st19" points="482.4,427.5 490.3,437.3 482.3,447.3 467.4,437.4 			"/>
			<polygon class="st19" points="558.9,472.1 558.3,459.4 570.5,456 576.8,473 			"/>
		</g>
		<g>
			<g>
				<path class="st18" d="M582.9,471.6l-6.8-18.1c0.1-0.1,0.2-0.3,0.2-0.4c0-0.2,0.1-0.3,0.1-0.5l16.2-10.7l17.7,22.2L582.9,471.6z"
					/>
				<path class="st18" d="M592.6,432.8L576.3,422c0-0.1,0-0.2-0.1-0.3c0-0.1-0.1-0.2-0.2-0.4l6.8-18.2l27.4,7.5L592.6,432.8z"/>
				<path class="st18" d="M577.5,395.7l-19.3,0.9c-0.1-0.1-0.3-0.3-0.4-0.4c-0.1-0.1-0.3-0.2-0.4-0.2l-5.2-18.8l26.6-10L577.5,395.7
					z"/>
				<path class="st18" d="M543.4,374.4l-15.3,12.2c-0.1,0-0.2,0-0.3,0c-0.1,0-0.3,0-0.4,0.1l-15.2-12.1l15.6-23.7L543.4,374.4z"/>
				<path class="st18" d="M503.6,377.2l-5.2,18.7c-0.2,0.1-0.3,0.1-0.4,0.2c-0.1,0.1-0.2,0.2-0.3,0.3l-19.4-0.9l-1.3-28.4
					L503.6,377.2z"/>
				<path class="st18" d="M472.9,403.1l6.8,18.1c-0.1,0.1-0.2,0.3-0.2,0.4c0,0.2-0.1,0.3-0.1,0.5l-16.2,10.7l-17.7-22.2L472.9,403.1
					z"/>
				<path class="st18" d="M463.1,441.9l16.3,10.8c0,0.1,0,0.2,0.1,0.3c0,0.1,0.1,0.2,0.2,0.4l-6.8,18.2l-27.4-7.5L463.1,441.9z"/>
				<path class="st18" d="M478.3,479l19.3-0.9c0.1,0.1,0.3,0.3,0.4,0.4c0.1,0.1,0.3,0.2,0.4,0.2l5.2,18.8l-26.6,10L478.3,479z"/>
				<path class="st18" d="M512.3,500.3l15.3-12.2c0.1,0,0.2,0,0.3,0c0.1,0,0.3,0,0.4-0.1l15.2,12.1l-15.6,23.7L512.3,500.3z"/>
				<path class="st18" d="M552.2,497.5l5.2-18.7c0.2-0.1,0.3-0.1,0.5-0.2c0.1-0.1,0.2-0.2,0.3-0.3l19.4,0.9l1.3,28.4L552.2,497.5z"
					/>
			</g>
		</g>
	</g>
	<g>
		<polygon class="st20" points="819,184.6 795.4,191.1 803.7,165.5 		"/>
		<polygon class="st19" points="778.4,167.6 748.4,157.9 778.5,148.2 793.2,157.9 		"/>
		<polygon class="st18" points="776.2,141.2 746.1,151 764.7,125.5 782.4,124.7 		"/>
		<polygon class="st19" points="758.8,121.2 740.1,146.8 740.1,115.1 754.1,103.9 		"/>
		<polygon class="st18" points="732.8,146.5 714.4,121.1 719.1,104.1 732.8,115.1 		"/>
		<polygon class="st19" points="708.5,125.4 727.1,151 697,141.3 690.7,124.5 		"/>
		<polygon class="st18" points="694.7,148.2 724.7,157.9 694.6,167.7 679.9,158 		"/>
		<polygon class="st19" points="696.9,174.7 727,164.9 708.4,190.4 690.7,191.2 		"/>
		<polygon class="st18" points="714.3,194.7 732.8,169.3 732.8,200.9 719.1,211.9 		"/>
		<polygon class="st19" points="740.1,169.1 758.7,194.8 754.1,211.8 740.1,200.7 		"/>
		<polygon class="st18" points="764.6,190.5 746.1,164.9 776.1,174.6 782.4,191.3 		"/>
		<polygon class="st17" points="783.4,173.1 796.3,164.6 788.8,187.6 		"/>
		<polygon class="st17" points="783.5,142.7 788.9,128.4 796.3,151.1 		"/>
		<polygon class="st17" points="765.5,118.1 761.4,103.2 781,117.4 		"/>
		<polygon class="st17" points="736.5,108.6 724.4,99 748.5,99 		"/>
		<polygon class="st17" points="707.7,118 692.3,117.3 711.7,103.2 		"/>
		<polygon class="st17" points="689.7,142.8 676.8,151.3 684.3,128.3 		"/>
		<polygon class="st17" points="689.6,173.2 684.2,187.5 676.9,164.8 		"/>
		<polygon class="st17" points="707.6,197.7 711.7,212.7 692.1,198.4 		"/>
		<polygon class="st17" points="736.7,207.2 748.7,216.8 724.6,216.8 		"/>
		<polygon class="st17" points="765.5,197.9 780.8,198.6 761.4,212.7 		"/>
		<polygon class="st21" points="803.7,150.4 795.4,124.8 819,131.3 		"/>
		<polygon class="st20" points="786.4,112.3 764.5,96.4 787.5,87.7 		"/>
		<polygon class="st21" points="750,91.7 723.2,91.7 736.6,71.4 		"/>
		<polygon class="st20" points="708.7,96.4 686.8,112.3 685.6,87.7 		"/>
		<polygon class="st21" points="654.2,131.3 677.7,124.8 669.4,150.4 		"/>
		<polygon class="st20" points="669.4,165.5 677.7,191.1 654.2,184.6 		"/>
		<polygon class="st21" points="686.8,203.6 708.7,219.5 685.6,228.1 		"/>
		<polygon class="st20" points="723.2,224.1 750,224.1 736.6,244.5 		"/>
		<polygon class="st21" points="764.5,219.5 786.4,203.6 787.5,228.1 		"/>
	</g>
	<g>
		<polygon class="st21" points="819,410.7 801.3,432.8 784.5,421.8 791.5,403.1 		"/>
		<polygon class="st19" points="758.9,453.6 756.2,453.5 758,451.1 		"/>
		<polygon class="st19" points="714.2,421.1 716.9,421.2 715.1,423.6 		"/>
		<polygon class="st17" points="755.1,443.4 755.1,443.5 748.1,453.1 748,453.1 747.9,453.3 736.8,457 736.6,456.8 736.3,457 
			725.2,453.4 725.1,453.1 724.8,453.1 717.9,443.6 718,443.4 717.8,443.3 717.8,431.5 718.1,431.4 718,431.2 725,421.6 
			736.5,417.9 748,421.6 755.1,431.4 755.1,443.3 755.1,443.3 		"/>
		<polygon class="st19" points="757.9,423.8 756.1,421.3 758.9,421.1 		"/>
		<polygon class="st19" points="742.8,412.8 745.1,411 745.9,413.8 		"/>
		<polygon class="st19" points="727.3,413.7 728,411.1 730.2,412.8 		"/>
		<polygon class="st19" points="711.1,436 711.1,438.8 708.9,437.4 		"/>
		<polygon class="st19" points="715.1,451.2 716.7,453.4 714.2,453.6 		"/>
		<polygon class="st19" points="730,462.1 728,463.7 727.4,461.2 		"/>
		<polygon class="st19" points="745.8,461.2 745.1,463.6 743.1,462 		"/>
		<polygon class="st19" points="761.9,438.8 761.9,435.8 764.2,437.3 		"/>
		<g>
			<g>
				<polygon class="st18" points="754.8,493.5 740,481.7 740,468.2 748.9,475.3 751.9,464.4 759.8,475.3 				"/>
				<polygon class="st18" points="713.2,475.2 721.2,464.3 724.2,475.4 733.2,468.2 733.3,481.7 718.3,493.7 				"/>
				<polygon class="st18" points="718.3,381.2 733.1,393 733.1,406.5 724.2,399.4 721.2,410.3 713.3,399.4 				"/>
				<polygon class="st18" points="759.9,399.5 752,410.4 748.9,399.3 739.9,406.5 739.9,393 754.8,381 				"/>
				<polygon class="st18" points="777.8,420.4 764.9,424.6 768.9,413.9 757.5,414.4 765.4,403.5 784.4,402.6 				"/>
				<polygon class="st18" points="707.8,403.4 715.7,414.3 704.2,413.8 708.3,424.6 695.4,420.5 688.7,402.5 				"/>
				<polygon class="st18" points="693.3,426.9 706.2,431.1 696.6,437.4 706.1,443.7 693.3,447.8 677.4,437.4 				"/>
				<polygon class="st18" points="695.4,454.3 708.2,450.1 704.2,460.8 715.7,460.3 707.7,471.2 688.7,472 				"/>
				<polygon class="st18" points="765.3,471.3 757.4,460.3 768.9,460.9 764.8,450.1 777.7,454.2 784.4,472.2 				"/>
				<polygon class="st18" points="779.8,447.8 766.9,443.6 776.5,437.3 767,431 779.9,426.8 795.7,437.3 				"/>
			</g>
		</g>
		<polygon class="st19" points="786.2,395.8 766.2,396.7 760.8,377.2 787.5,367.1 		"/>
		<polygon class="st21" points="752.2,374.5 736.5,387 720.9,374.6 736.6,350.8 		"/>
		<polygon class="st19" points="712.4,377.2 707,396.5 686.9,395.6 685.6,367.1 		"/>
		<polygon class="st21" points="654.2,410.7 681.7,403.1 688.7,421.9 671.9,432.9 		"/>
		<polygon class="st19" points="654.2,464 671.8,441.9 688.6,452.9 681.6,471.6 		"/>
		<polygon class="st21" points="686.9,478.9 707,478 712.3,497.5 685.6,507.5 		"/>
		<polygon class="st19" points="721,500.2 736.6,487.7 752.2,500.1 736.6,523.9 		"/>
		<polygon class="st21" points="760.8,497.5 766.1,478.1 786.2,479.1 787.5,507.5 		"/>
		<polygon class="st19" points="791.5,471.6 784.4,452.8 801.2,441.8 819,464 		"/>
	</g>
</g>
</svg>
